<mxfile host="app.diagrams.net" modified="2023-10-16T00:11:29.627Z" agent="Mozilla/5.0 (Windows NT 10.0; Win64; x64; rv:109.0) Gecko/20100101 Firefox/118.0" etag="clrlLB0E-2KSHoiwmgJv" version="22.0.4" type="github">
  <diagram name="PÃ¡gina-1" id="VEr0xFGOgOVDt_De82Iu">
    <mxGraphModel dx="809" dy="1025" grid="1" gridSize="10" guides="1" tooltips="1" connect="1" arrows="1" fold="1" page="1" pageScale="1" pageWidth="827" pageHeight="1169" math="0" shadow="0">
      <root>
        <mxCell id="0" />
        <mxCell id="1" parent="0" />
        <mxCell id="7mMt30TFksxbmzaqSAxT-5" value="" style="shape=image;verticalLabelPosition=bottom;labelBackgroundColor=default;verticalAlign=top;aspect=fixed;imageAspect=0;image=data:image/jpeg,/9j/4AAQSkZJRgABAQAAAQABAAD/2wBDAAsICAoIBwsKCQoNDAsNERwSEQ8PESIZGhQcKSQrKigkJyctMkA3LTA9MCcnOEw5PUNFSElIKzZPVU5GVEBHSEX/2wBDAQwNDREPESESEiFFLicuRUVFRUVFRUVFRUVFRUVFRUVFRUVFRUVFRUVFRUVFRUVFRUVFRUVFRUVFRUVFRUVFRUX/wAARCADmAdMDASIAAhEBAxEB/8QAGwABAQEBAQEBAQAAAAAAAAAAAAUGBAMCAQf/xABKEAABAwMCAwIICQsDBAIDAQABAAIDBAUREiEGEzFBURQVFiJVYZTTZXGBkZOVo9HhIzI2RVNUcnSxwdImNbMHJDOhYoIlNEJD/8QAFAEBAAAAAAAAAAAAAAAAAAAAAP/EABQRAQAAAAAAAAAAAAAAAAAAAAD/2gAMAwEAAhEDEQA/AP64iIgIiICIiAiIgIiICIiAiIgIiICIiAiIgIiICLH3Y0tRfKqC6XGSgjipWOpC2qMA1Ev1PGCMkYaMHOB2br9NTbabi+1ltbAZ5KKRkj3zAPk/8XLyCepySO05KDXosRQ8XSzcSeDTVEBopTMI9bWRubyyRn/yF2+DuWjOMgDovK18XVktLcJqupozJFR+FRAACMHcDzmvdlucDfB36bHAbxFmeFrvVXVlVHWzRSTU72gljA0gEZ3LXuae3GD06jdaZAREQEREBERAREQEREBERAREQEREBERAREQEREBERAREQEREBERAREQEREBEUO4XqeiujKXwRron00k4mdMGjLBu3GPW3fPQk42QXEWfouIfCja454G01RcIzLyXPc4tbgluCG4JIGSCQQM9cLrkvtvjuQt76jFU5wYGhjiNRGQNQGAcb4znCCqigv4gb4FeZqZkcz7YXZY5zmE6WZIOW7bhwGMggA53X7Q8U2yvon1ENQSY4hLIzQ7IB7QMZcM7ZAIQXUUKsvc0PC7bxSwwT4gFQ9hkc1pbjJ0nTknuyB68LpuV0jtstHG5zNdVM2JoeXAHJAOCARncYBwCT1CCoihV/ElFbbxFbqnmNfJCZNbY3uAIcABsD1yTnsxv1Xu7iO2Mc4OqSC2qFGcxv2mPRvT/AN9PWgrIiICIs/DVXiunrPBpKGKGCodC0Swvc44xuSHAb57kGgRSOXxD+9Wz2aT3icviH96tns0nvEFdFI5fEP71bPZpPeJy+If3q2ezSe8QV0Ujl8Q/vVs9mk94nL4h/erZ7NJ7xB3z0kFXo8Jp4ptB1M5jA7Se8ZGxXzJRU0kwmfTROlBBDywF2R0Oeuy4uXxD+9Wz2aT3i5qqpu9BDzqy5WinizjXNE9gyegyZAMoKjKCkZM6ZtLC2VztTpBGA5x6ZJxkn1r9ioKOBsjYaSCNspy8MjADz68Df5VOYb68MLK21uD26mkQSEEbbj8puNxv6168viH96tns0nvEHdTUsFJFy6aCOGPJOmNgaMnqcDtXSocPj2ZpdHW2p7ckZbTyEZBwf/8ATsII+RevL4h/erZ7NJ7xBXRRwziA4Iq7WQe0U0nvF+8viH96tns0nvEFdFI5fEP71bPZpPeJy+If3q2ezSe8QV0Ujl8Q/vVs9mk94vkMv7ulXbCNxtTSdfpEFlFI5fEP71bPZpPeJy+If3q2ezSe8QV0UGKrukF3pKWufRyxVLJCHQxOY5paAe1xBByryAiIgIiICLOQ8XUlTUOghpql0sdZ4HK3DMxvzgF3nfmnfBGeh22VDx7aiZx4zo/yB/K/l2/k9wN99tyBv2nCCmimw3y1TxSyQ3KjfHCA6R7Z2kMB6Fxzt8q6aSsp6+nbPSTxzxO6SRuDgflCDpREQEREBERAREQEREBERAREQEREBRb9Y479SRQSTyQFkmovYNy0gtez4i1xHzHfCtIghXS1V9bXUU9HXQUrKMlzI30xk84tc0kkPG2HdMdR1XI/hid/EQunhrGDnCQ8uEtkc0AAMc4Ow4YHUtJxsCFqEQZc8O3F7rsZbpARc4yyQNo3DT5mgEflD0HzlfdDY7jS6JHXOCSpgpxS08ngmlrWZaSXN17k6QBggDrg5WlRBmPJyv8AJbxH40g08vkc7wU55enGMa+vbnPyLouNpudwo6SF1zp2SQzNmfIKQkPc14czA17AYAO5z6lfRBDrbZXy1VLWU1dDFVxQOge91OXNcHFpLgNQwcs2BJG6lw0XhvG75n09Yymp4hI4ywlsctQ3MYeDjBIYTjHqI6LYIgIiICkWD9Z/z8v9lXWQt/EEdBVXSB9BcpyK2Q66ejfI3s2yBjKDXos/5XQ+iL39XSfcnldD6Ivf1dJ9yDQIs/5XQ+iL39XSfcnldD6Ivf1dJ9yDQIs/5XQ+iL39XSfcnldD6Ivf1dJ9yDQLOX7ltr7fI2sp6arDZeSauPXC8HTkHcYd0IIOcA9RlffldD6Ivf1dJ9y8J+JaOqj5dRYrvNGd9MlskcM/EQggvrXQNZW0sgo5IrdXcuODS6JzmSjLmZGS0nLgOwAdgOa1XdpKq9eCRXHl0hqY4nTRFuWZhe/AcQQCXADv7BjK9zxJRu0arHeCIwWszbJPNBGCBtsMbL5F+t7YDAOHrqInDeMWp+k46ZGMIINNdq2moGRU9biKOGpqBUCSNgldz5AXHIIIAAOBj874lXjrLhJWOlkrpWf9+yl5DA3QGuiaTjLc5ySQSez489D+ILfIxjH2G6uaw6mNNreQ09cgY2K+/KelBJ8TXnJdqJ8WydcYz064HVB08Ht08K23Epl/IDdxBI9WwHTp8iurNR8U00Y0x2a9NGScC2yAZJyT0716+V0Poi9/V0n3INAiz/ldD6Ivf1dJ9yeV0Poi9/V0n3IJ3HlHxPV27Tw5UsYzSedEzzZnj/4vJx8gwfWc4XjwXR36HhOhjbV0lPpa8GKooZHSNOt2Q481uTnPYFX8rofRF7+rpPuTyuh9EXv6uk+5B0+D8Q+k7Z9Wye/TwfiH0nbPq2T365vK6H0Re/q6T7k8rofRF7+rpPuQcVbDfBfrWHXG3mQsm0EUEgA2bnI52/Z2jHrVbwfiH0nbPq2T36lx3mO6cT2xrKKvpyyOc5qqZ0QOzehI3WrQSPB+IfSds+rZPfp4PxD6Ttn1bJ79V0QSPB+IfSds+rZPfrooY7jG54uFRTTg40cimdFjvzl7s9nd8q70QYuHhOsZeG1zpqdhbXvnIjJJkhc4uAdkdQSMY73b7rhdwhf5BUiWopJnz00tO+SWeV2rW4O1huMNOR0Ax6yv6EiD+f1nBNwrJ5XtnpYSXySN5Zc0uJmEgBIGR0IyOmARnGFoeGLRUWejqWVOjmVE5mOJnydWtGS5wBJ232CvogIiICIiAiIgIiICIiAiIgIiICIiAs3xg58dqhfHNVRuFXC3/tZeW94Lw0tByBuCepAyAexaRclXQUtxhEVbSxVEbTqDJmB4BwRnByM4J+dBlqKuvFuc2mqnMbHNDUTUzq5wfKwMLMCRzTg5DidiTjqdlyC93EVdXX0slKGeLaatqKeolf1IeSGDOG5GBncZxkHOVr5rTQVUENPU0FPLDT45TJIg5seBgYBGBttsvHycswc15tNDraRh3g7MjGw3x2AD5kE+nlaeMontllayptxldE+UlodqYB5pOAcdwHb3lKK7zwVPETqoMk8CeJWiFzvPbywQAHEgHAAOMDOT2qsbNbTV+Fm3UhqtQfzzC3XqHQ6sZz60p7LbKOfn0tupIJsH8pFA1rt+u4GUEy2XG6umD640MsElKaiMUbiX5yNgCTqGD1AAzjpldnj/AOCrn7P+K96Oz263SPfQUNNTPk/OdDEGl3bgkDp6lQQSPH/wVc/Z/wAU8f8AwVc/Z/xVdEEjx/8ABVz9n/FPH/wVc/Z/xVdEEjx/8FXP2f8AFSbJfOX4x/8Axlxdmtkd5sGcZxsd+q1qkWD9Z/z8v9kDx/8ABVz9n/FPH/wVc/Z/xVdEEjx/8FXP2f8AFSOJeKqi38P1lVSUFdDPEwOY+an8wHI679Oz5Vrlx3Cgp7nRSUdZGJaeQAPYSQCAQcHHxIM3wRxs7iymfzaCaCeIefI1pMLj3B3YfUfnKpU3EDam/wBTbRTVI5TWFrzTSNGTryS4jAHmjB7d8ZVenpoaSBkFNEyGFgw1kbQGtHcAOiMgibUyTtjaJJA1r3Dq4DOAfiyfnQR6u+yUtwlhbRa6eCSFks/O0kcwhoIbjfBIzuNumei5qritlFW1MMsMJLGzFrGVTXSnltLsuYB5gIacHJPTIHQVJ7RT1Lql0j5NVQ+J78EbGMgtxt3gZ/sp7+FaaYvbJV1ZhL5nNhaWBrTM1wfuG5P55IJJI27M5D4HElUyXTNbBGGOgMh8IDtLJnBrCABu4HORsABsTlelv4qprjc20jDBiV8jIgyoD5MszkvYBlgIBIOT2ZwSAu6ay007pi98mZRCDgjblOLm427zv/ZflFZ20dQHx1dUYGl5jpi4CNhcST0AJG5wCSBnbswHax8xqZWPiDYmhuiTXkvO+dsbY2+PKzVPU1kN5Y241tbTTyTubypImmlladWlrHgeacAEZIJIIIOcLStje2aR5neQ/GIzjDMZ6YGd+3JPTbCl0/D0dPJE3wyqfSRSc6Ole5pjY7JIwcasAnIBJAwO4IJNPxJcX2+Tn0QL46SSqmnjnA0NBkAABZucs22x2nuNDyilbVlhoyKZk7aZ05lBdrLA8HQBuN8E5B7gez2i4cpooamHmTvbUwGnOsty1hLjgYA6F53OezqvcWOnAIzIQ6pbUkZGC4NDQOnTDRt/7QeFtvc9dPA2Wh5EVRTmphkEurLAWgAjAw7DgSMkDbc74urLWG01tLcY5qpssUNNSmmjjkmbIBktOGEAHSA3ALvOOd+i1KAiIgIiIJFf+klo/gn/AKNVdSK/9JLR/BP/AEaq6AiIgIiICIiAiIgIiICIiAiIgIiICIiAiIgIiICz9fxILdW1EEtvqpGU0LaiaaIsLWsJcNWC4EgFpzgZ26LQLL13DUlx4mbX1YppqJsTIxC/Xq80uIJAIafOd0IIwOmUFMX61+G+BeMaXwoyGPk80atQ6jGc5+8L6gv9qqfCOTcaaTwVpdNpkB0AdSfV6+imU1kuDL5c6ueSl8Hr8Ndy2OErWhuluHE4B2BOx36JZrHXUdTSvrJqYw2+mNNT8hjmukadPnPJOAcNGwyMknPYg6aDii0V9s8YR18DIWMa+XW8AxaugdvsScjHaRsuh9/tUdvZcH3CnFG84bMXjST3DvOx267HuUF/C91ms1NbpaymYygcx1KYhI1zyzIBe4OBGQT06HBycYP3RcN3GgjiqIH0nhzJ5JXMkfLIx4e1rTl7iXahpG+MYJGN8oKVVxZZ6KWjZNXwaKsOcyRsjSzAB3Jz0JBAxncYXY+9WxlZFRvr6dtRKAWRaxl2emPj7O/sUyayXBsNtmpDQR1tE+R/LbG5kJ1gg4AJIxnPrOemVPqOE7hUXV1S+qgkjqJYp52l8zAHsDQcMa8NI80EE7jocoLEnElH48prXTywzzSPfHKGSjVCQwu3b2/mkHuOM9VdWSp+HbnTV9vEctCaO3zvkjc6J3Oe14cHAnOAcO6jqQCQMYVY8K2Ekk2O2knck0keSfmQV0UfyU4e9BWz2SP7k8lOHvQVs9kj+5BYRR/JTh70FbPZI/uTyU4e9BWz2SP7kFhSLB+s/wCfl/svzyU4e9BWz2SP7lKsvDNjm8Yc2zW9+itka3VSxnSBjAG2w9SDWoo/kpw96Ctnskf3J5KcPegrZ7JH9yCwuerqRSUk9S4EiGN0hA7QAT/ZT/JTh70FbPZI/uXPWcIWOejnigs1tjlfG5rHiljGlxBAOQM7FB6cP8V2riWn5luqA57Rl8L9pGfGP7jI9a/b/cKqgbSso4mvknna0l0rWYAIcRv1y1rhnsUrhb/p7a+GCyoOaqvA/wD2HjAbtvpb0HxnJ9atXiyU17jYyqYx3K16S6MO0lzS3Iz3Zz8YHcg5Ke9zQ8KQXWogfLLKGOETHDJ1vAaAenRwX0OIHiY82ifHDHNHTTyc0ERyvDcADtAL2gnbc9CASOySz0ptrKCKMU9Ox7HhsLQ0AteHjbGNyN/jK8JrFHNWPlM8wglnZUSU4DdL5GadJzjIHmNJGdyB6wQ5uHrjVV9RI2pl5gbTRSDzQPOMkwPQDsY0fJ6yu66Vc9PYq+qawwzwwTPjBIdgtB0nu3wDj14K/bfZobbI58L3uLomREPI6Nc9wOw65kPzBek1F4Xbaminmlcydj43SHSHAOyMDAA2BwNuwZycoJVJxFMRFHNSSPjbJDTy1Ie0DmSMY4EN2OMvAOOmRjO+OKDjM09KTcY42z6pnuaahjMRtkc0YyRk7EADrpJJGRm02wwRwOiEsuHVENRkkZ1RiMAdOhEYz8ZXIeF2Nc91PXVMJeZA5wDCdD3l5AJbsQ5ziD1GTnO2A9X8QA1H/bUsk9KJ4qd07XAAPfpIODvgB7cnvOMdSOKPjejkilkjjEuIjNEyKZj3uaHNb5wB8wnUCAezOcEEL5qbRWS3gNp2VMVMauGpe4yxmGTQG5JBHMDjoAx0yAc9QuyLhiKOE07qypdTNZyoogGgMbkEA4HnEaQATnAz2klBapZJpadj54DBKR50eoO0n4xsV7oiApV3v1usoj8PqmQvlcGxx9XvJOBho3Px9B2qqv5zxR/01F1vDbpb6qQTGVr5YZpHEEAgnQ7OWnGcDp3EIP6MikeTVF+3uf1pVe8Tyaov29z+tKr3iBX/AKSWj+Cf+jVXWSrrDStv1rZzbh57JjvcagnYN6EvyPkIz2qt5NUX7e5/WlV7xBXRSPJqi/b3P60qveJ5NUX7e5/WlV7xBXRSPJqi/b3P60qveJ5NUX7e5/WlV7xBXRSPJqi/b3P60qveJ5NUX7e5/WlV7xBXRSPJqi/b3P60qveL8Zw/SRytkZNcCWuBAdcahwz13BeQR6iEH0L9R+PzZn81lXy+Y3XGQ17fUeh7fmPcvWC70NVPUwR1EZfTyFkgLgCCGhxI9QBG/qPcszV8PXya+zXeOSJsrKuJ8MHPAY6FjS05PLLgSC7YHHnnu376Oyvo79WvjtVA+lq5jL4S4gSNaY2tczTp7XAnrgglBXobxQXGjdUU1VG6IZ1EuALcEgkg9Nweq/ai60sNHPUtlZMIW5cyKRpJOMgDJAyewEjOVm6GwVtvtVbbmWm2EPZIwTczSZ9TyW5HLOAATsSdwANt18jhqePg59sZZ7Y2rli8HeRJ5rsMIEpPLyXBxJAxtknKDRVV5pqK4Q0lUDFzonStmeWiPDSAQSTnPnDsxv1XW+rgjDtc8TdGNWp4GM9M92exZi5Wy61tXaqqa02+qFFFK19PLUEgudpALSY8bBudx2kdmVwz8J3KGhkpqemoal1VRNgkfJIWiF7XPLSPNJIAeGg7EBo6INd42o/GMtEZ2CpjDCWFwBOrOAO87Hb1jvXTHVQSzvhjnjfLH+fG14Jb8Y6hZ2SzVEXEhuEFst8/PZEHyyvAdA9hdkjzCXEhwwcg+aMqTa+D7hb7gJXBkjoRPpnNQGibWHY1BsYeckgnLzgjIJwEG3gq6eq1innil0HS7lvDsHuOOi6FkeELDWWaaodPDDDC6KONrWvEjiWl24cGNOnB2ByfWtcgIiICIiAiIgkXW9OttVSU8dBUVclUXhghdGN2jJHnOHZn5l5Dim0CmhlqK6Kl50QmEc7wx4aTjcZ65BG2dwVzcScPz3qegdG6ARUz3ueyXmAuyANixwI2z293ZkJV2OrF2t09vFBDR0ELoo4pYnEtDtIOMEAYDQB8Zygox3enkustEyWA8qATPeJmkgE9reoGCDnpuF+RcQ2id0TIbpSPdNqMYbMCXAZzjfswfmXFJbLr5UMuTJ6IUzYuQGFj9eguBO+cZyNuz1LzpuGpaWsuEsNZy2SRyMogG58FMh1SEDocvwQNsAY7UHW/ia0i2VlfFXQzwUYJlMUgOD2Dr1J2HYSvtvEtofbPD/GEDaYENL3PHmuIzpOD1x2KNa+F7hTsuMVZVwcqupPB3FjpZHAgOAdl5O2HkkDAzjGN8/lTw9ea+johPU00dRQOHIEBljaRpLTl4cHAkEEYGBgg5zsGrpqmGrp2T00zJoZBlj43BzXDvBHVe6ztu4cjgs9NS1UkzXwue4+CVc8TSXOLjuH5PXtJ3zjGV1+TVF+3uf1pVe8QV0Ujyaov29z+tKr3ieTVF+3uf1pVe8QV0Ujyaov29z+tKr3ieTVF+3uf1pVe8QV1IsH6z/n5f7J5NUX7e5/WlV7xSbNYKWVtwzNXgtrZGjTcagbDHXEgyfWd0GtRSPJqi/b3P60qveJ5NUX7e5/WlV7xBXUmfiC20l4jtlTVshq5YxJG2Q4DwSRgHpnIO3Vfnk1Rft7n9aVXvFkeIP8Apr494igmFZPFb44A1/Nnknlc7USQ0vJwMEduM9h3Qf0CWWOBhklkbGwdXPIAHylTrpeYbbSQTnDxUSCOM8xrW5IJGXEgAYB3zucAZJC9YLTSw21lAYzPTMaG6ahxl1AHIyXZz/bsXxXW0VFDHTU7207IyNMfKDoyACNLmHALcHoMYIB7EHDU8VU1IQ2aCZhZC2omD3saYWEkDILsk+a44Gdh6wD+XHiOWnpbhLSUU8raZsrWT4BZzGNJORqB0gggnbcY7ifFvB8EUbI4py3MQhlcYWOLmguOWZHmHLyBjIAwMbArqnsBm8Kh8Nmjo6gyPdAxoBDpGlrt+1uXF2CPzt84GEHnDfnGZ0Xg9TNVvkaxsA0AMJha8+dnGBnckk5OBkJJxZAyJ0kVFVyNipzUTkBg5LQ5zXA5du4FjthnODglfY4feybnw1jm1gkEglMYI2jbGQW9oIbnqCDjfvM4YhZR1cAqJD4XSOppHuAJJcZHOf3ZJkJx0QV5XvY+MNie8OfhxaQAwYJyckZGwG2TuNsZUO/1tVS1jGuqp6CiEQcKmGmEwMmSCH7HSANJGwzk7jCuyMkdJEY5TGGv1PGAdYwRjfpuQdu71rgrrdVTVoqaO4SUjzGI3t5Ye1zQSQQD0Iy7f1jIOAgmt4kqKepmZPSeEMZDSmN1I9pbLJKSPNJI2J6E42BJ6jPo3iGRj+U2jq6ioc6ZxjbyxygzRqBOoA41gA75Pzr0ZwxBA6IQVEjYYo6ZgjIBzyX6mkn15IPx5XVDZI4a99SJXEvE4IwNuaWE/Nyx86Dm8poX6ZIKaomp8Ra5m6QIzLgtBBIJ2c0nHQEdd8aBYyex1tPLDRUTKgU5NLzJQ6MxycosBc7JDmnDcYAIOB03WzQEREBERBIr/wBJLR/BP/RqrqRX/pJaP4J/6NVdAREQEREBERAREQEREBERAREQEREBERAREQEREBERAREQEREBERAREQEREBERAWNouE7Ndqu6VVbRc2Y10gLua9vTHYCAtkpFg/Wf8/L/AGQcXkBw36N+3k/yTyA4b9G/byf5LSIgzfkBw36N+3k/yTyA4b9G/byf5LSIgzfkBw36N+3k/wAk8gOG/Rv28n+S0iIMnJwVwvFPDC+g0yS55bebKc4GTvqx071x3Xhbh63VNFTQ2R1RNWOc1jRVvYBpaXEkl3cCrVy4Xo7ndKeuqA8ujzraJHgP2wOjgBj4t+1ft7p6vxnaa2kpH1IpJJC9jHtacOjLRjUQOpQQaXh7hifDJLOYJo5TDPFJVuBjcGa8jz/OBBBBHYcnGDj1HDvBBp/CR4J4Pr0cwVrtOrGcZ14zgE47t17z2OvrTJUVNLFrqZ5ZJKYy7NYaYxNa5wGck4yRnGds4yuV8VxpKq3yzUk9SDXtMUM7oTOcU82SXghpA2LcnO25GRgPocN8H+EStNJEIGU7J/CDVv5Za9zgN9WOrevrC9oOE+EKpjXU8EEoc0vBZVvOWg4J2d0B2J7CvNtmulOJZ4om65NEhZGY3PjzUSylrNY06gHgAnbrjsXPUW+rhhhp5CYqyuq5otMkrXSPp5QDIRjbIwCcYALe4goOuo4Q4Yhghljtwl58jGRaaiQh5cRgghx2AySe4FfdHwZw1V89ptemSCZ0T2meQ4IwQc6u1paflVe6s5MtplDcRU9WNQGwAdG+MbdwL2r8tUZFwvFTkmOaqaGZGx0Rsa4j/wCwcPjCDk8gOG/Rv28n+SeQHDfo37eT/JaREGb8gOG/Rv28n+SeQHDfo37eT/JaREGb8gOG/Rv28n+SeQHDfo37eT/JaREGTg4dtdk4ntj7bS8l0scweeY52QA3HUlaxSK/9JLR/BP/AEaq6AiIgIiICIiAiIgIiICIiAiIgIiICIiAiIgIiICIiAiIgIiICIiAiIgIiICIiApFg/Wf8/L/AGVdSLB+s/5+X+yCuiIgIiICIiAiLhqKapnmhdDWzU7Y3Ze2NjCJRkbEuBI6HpjqfUg8rxdoLPSsmqWvcx0gZhgyQMEucfUGtcT6gV+3a60loo5KisljaWMfIxjngOk0gkhoJGTju71PudnqrtdWh0z6alhgLQ9gY4yOeSHDDgcANAGcD8847VHqbXc3Wupp5raayee3eBMeHx+a5jnhrzqIwHAsdtuC0ZAOEGoqLxR09fBROma+pmkEfKY4FzMtc4OIzkDDTv6wv2rrGU9SGMpzUVLIHzBrQMgDAwD2FxwAO3B7lFZbatl1gYaFzxFcpKt1ZqZpLHseANzqyNTW4x0aN8YVJz20nEVXNO4MjkoY3NcegEb5C8/IJGIKUUsNXTxyxlskMrQ9pxkOBGQfmXo0NYMNAG/T1ndTOHaeWl4dt0M4IlbTs1BwwWnAOD8XT5FWQERYT/qG7ixtCfJ8DwPT+WMGfCB349X8O/yIN2ix3Cpvp4WtZiNAWGnZjm8zX07cdverX+ofgz7RBXRSP9Q/Bn2if6h+DPtECv8A0ktH8E/9GqusnW+PPKG1avF3M0T6MczHRuc/+lV/1D8GfaIK6KR/qH4M+0T/AFD8GfaIK6KR/qH4M+0T/UPwZ9ogropH+ofgz7RP9Q/Bn2iCuSB1KLGX3wFt2jPE0YdSmiAhwHGPnZPMDcbhxGjT29cb5UenvN6ppZqae4Vjq2nip+RRmkEgmkMbS5r3huRucEkgjOcnCD+lov5/RX67ycW+Czyta11VLE+lc5uRGMhrg0M1A4wdRJBB+LC336qmprvVOvc1V4EZjHTRUzA4xjIa8nSMnJB7sDcHdB/QF5ySMibqkcGtGMknA32X8/pLpV3zhniOkkrnTTR07nRuj0yFwMZyARG0EEgjYZGSAdgV6XS903kjLJBe3VczHtc18lOwtkdgHl45eCBjO24IG42Qf0BFjL3xDqnifT3Z9FRPpjLTzxQCQVMocQWbg9MN2GCdXXZcc3EFe2uqpp7jJTNpRROfSclmlpkIEjSS0uwASeuQT6sIN+ixFJfa6bjUUfh2uAzysMDA3zWta4DU0tDh5wzrDiDsMDO23QEREBERAREQEREBERAREQEREBERAREQEREBSLB+s/5+X+yrqRYP1n/Py/2QV0REBERAREQERcFfS1dS2PwSvfRlpy4tia/WO7zgcfIg8666OpKmCmio6iqmmY+QNhMYw1haCSXuaOr29M9q/ai6w0VuNZXNdSkMc/kyOZrOASQMEgnAzgEqbfaWSS60M5pK6ogjhmY40c5ie1zjGRkh7SQQ122TuBt0U+7W2eqp6kttVTUNqLc+lhjne174ZMuOXFzj1y05BP5o7cBBoReIPCYad4Mcs7y2MOI87DQ4nYnGxAwd89mN0r6umjMsctOagxQOme0MDsM6EYPaRqwO3BUamtlVDfIqiWjL4xVyO1AtOkGGNoduemWkbb7dFRMjKO/3KapcGxGjieHO6aWGTX82oE/xDvQV2SMlY18bg5jgHAjcEHoV6KXYKeSlsFtgnbpmjpY2PaeocGgEH4uiqICIiBjCIiAiIgkV/wCklo/gn/o1V1Ir/wBJLR/BP/RqroCIiAiIgIiICl01ngpLtVXCKScy1eOYx0hLCRgAgdAQBj4lURAREQEREBERAREQEREBERAREQEREBERAREQEREBERAREQEREBSLB+s/5+X+yrqRYP1n/Py/2QV0REBERAREQcFfcqa3RtkqJGsDntY0FwBcS4N2yR0JGfUuWS/00VlqLppkkggc8ER4JdpeW5G4G+MjJGxC5+JqGorhRCnbC7RKXP5lOJcANLhjJGMua0evI7lyVVlrWcCyW1jGTVZgDQ2Jgj1HbIOSQTscnIygr0l4E9UaaejqaSo0GRjKjQdbQQCQWOcDgkZGcjI2Xq640wfSNjeJW1UphY6MhwDgxzzk57mHv3woN2prjfefJDQz0jYqSWJglfGHzOeWEtGCQBhhGScEuHYCuNlmuExL4G1MTnSnTJPy4y0immYH6YwAMF7BncnA7ACQ1NXdqOmpnVMlTGY2SNic5jgdLi4AA77bkZ9S9X+CVNQ6J4hlmY0gsOC5rTjOR1AOB8eAsbDZKrxfODRVTjGymbyZhAwOLJA4hoYADgA4JO+cDtXbbLTWw3uJ9RHVfk6meYvIhbHpfrAIcBrcSCMtJ2IB6AZDQVVyjp3TM5Usr4ITO9sYBIbkgbEjJOHYH/xPqz2skZKxr43BzHAOBG4IPQqMyRlHe7tLUuDY/B4ptTumgB4PzEEnu1DvXTYKeSlsFtgnbpmjpY2PaeocGgEH4uiCoiIgIiICIiCRX/pJaP4J/wCjVXUiv/SS0fwT/wBGqugIiICIiAiIgIiICIiAiIgIiICIiAiIgIiICIiAiIgIiICIiAiIgIiICIiAiIgLFtqr7R3W6U1qt8VZE2qL3PLmtIc9jXY3eM4BG+FtFItP+737+bj/AOCJBL8acX+goPpWe8Txpxf6Cg+lZ7xatEGU8acX+goPpWe8Txpxf6Cg+lZ7xatEGU8acX+goPpWe8Txpxf6Cg+lZ7xatZqHiGqLKWpmtzI6OpnEDJGVGp4LnFrSWlo2JxnBOM53wUHj404v9BQfSs94njTi/wBBQfSs94rbbtQOmmjbXQF8ALpQJG+YGnDid9gDse49V5G/2sRCY3Cn5ZcWZ1jJcACRjrnBBx1wQeiCT404v9BQfSs94njTi/0FB9Kz3isT3mggdAJK2BpqADF+UGHg9CPUcgA9CSF9su9BLWGkirYHVIJBja8FwI6jHeO0dUETxpxf6Cg+lZ7xPGnF/oKD6VnvFUF9oqjlmkqIJwZNJ0yjP5rnAgdudJx3jJHReVBxDSXC3RVVNNC5zhCZIjMBy9ZAwT3gkj1kEdUEmWs4om3l4epnnSWec+M7HBI3f0OBkeody9/GnF/oKD6VnvF0u4npKeAz1OiFnNbEA6UZyZnRZI2wBpznuyOxdzrzRwsa6rqqen1ySRtDpm+doeWk/JgZ7icFBI8acX+goPpWe8Txpxf6Cg+lZ7xXRcqJ1caIVURqgd4tQ1dM4x343x1xuu5BlPGnF/oKD6VnvE8acX+goPpWe8WrRBlPGnF/oKD6VnvE8acX+goPpWe8WrRBj6Oru1RxLbxeaNlIGxTGLQ5rtZw3IOHHGBv0WwUiv/SS0fwT/wBGqugIiICIiAiIgIiICIiAiIgIiICIiAiIgIiICIiAiIgIiICIiAiIgIiICIiAiIgKRaf93v383H/wRKupFp/3e/fzcf8AwRIK6IiAikuvMTOI22h8bhI+mFQ2QkYPnEafjwCfiBXhRcTUNTBVzzyNpIaardSiSoeGtkIAIIJ7CDkeoZQXVjqPhVtuNBX09JF4xhmcZwcESMcSHEE7BwBBBGOhHQlaF13t8LomS11Mx8oDow6ZoLwc4I33BwcHtwvttzonVjqJtZAatvWASAvG2fzc56boMrScNVzITTVEXOZDTzRNM9STHKXbDAABaCMknqDjGeq/I4bnQ3Wie+nkqCZZXQxTzMMoHLAOXgYJzsMknA3PYtTDeLbPDJNFcKWSKIZke2ZpDB3k52Hxr3pqqnq6cTU08c0JziSNwc09+42QZTyeuMFuqKNkcU/h9E2me/maRTuzIScEZLRzNsb5HQZyOyOyTtjgY5kLi24VNQ/WchzHsmAJx1J1tyO74lQl4ktTIopG11PLHLM2AOjlaQHHcZOdtt12eG03mu8Ii0OjMrXcwYLBjLhv0GRk9Bkd6DMUdjufOp9bXR08MkZEc0wkczEcrTpdjJZl7QA4k9Tt2/EFiuUtLRwzU0VO6jp6enwZQ4SFssb3HIGwAZtncknbtN2HiK2zGpcKuAU1OWA1BmbyyXDIAOcZ7ML3ku9vh5bpa+ljEoDo9UzRrDuhG+4ODjHXCDPtsFwhbO9kcb364nsbqA1aKx8xGezLSPlK8avh+4CSaWJr5OeKiMsZUCMND5pHtLsg5aRIMgbjA2PZpqO60tfU11NTSNdNRSiKUBwJBLQ7OAcgbkb43aR2LzgvVC8UzJKuljqKhrSyHnMcSSMgDB367EbHbHVBLpLRW0t7iMTTHSteXSHmh0cg5ZaCGEEtfnGSCAQD1yQtSuSsuNJbmNdXVUFM1xwDM8NDj3DJX1PV08FMZ55o4oAATI9wDQD0OTsg6UUtt8onVErefEII4GT+EcwcshznNHnZx1b/AO19m821tPHM64UrYZSRHI6Zoa8jYgEnfHagoouIXGjNaaIVUHhbdzBzBzMYz+bnPTf4l2oJFf8ApJaP4J/6NVdQJqiGqv1nlp5WSxkVID4yCCQACMjuII+RX0BERAREQEUa63+K0VVPTPpKuolna5zBAxp2bjOSSO8L7p79bZqKKpdWRwNkhbNomkaxzGnABIJ23IHdlBWRSvH1u8bOtprIW1QYxwYZGjVqJAA3yTtnHcR3r3judFNUeDx1lO+clzeW2VpdkdRgHOR29yDuRcdJcKSvD/A6uCo5Zw/kyB+k9xwTgr1qKiGkgdNUTMhiYMufI4NaB6ydgg90XA6725tK2qdX0opnHSJjM3QT3A5wSvmW9WyCYxTXGkjkGMsfO0EZxjYn1j5wgoouFl1oJqo00VbTPqDkcpszS/I6jAOdu3uX6LlRc6aEVdOZYG6pmc1uqMDtcM5A9ZQdqLhhudDURyyQVtPJHD/5HMlDgzbO5B22718m724UrKs19N4O8lrZec3QSM5AOcE7H5kFBFJq7/a6JtG+etgEdY8tik5jdLsNJznPTbGR2kd6oRyMmjbJE8PY4BzXNOQQehBHYg9kREBERAREQEREBERAREQEREBERAREQFItP+737+bj/wCCJV1ItP8Au9+/m4/+CJBVIJGMkE9vcpcVpqY+VqvNwk5cms6+V+UG3mnEY22PTB3O/TFZEGWvVpuE11muFuYw1EUEPg5c4AF4dKHg/wD0kPylcjLLcbdIY6KGQUwqCWugdFzgwQxMbgyZABLHA432GNltEQYqHh6tbZaqmkp2GZ1phpGZeDmRplJGewecw527O7b5uFqudRNJzWyQU7JqqQyNMYiYx8crWva1o1l3ngknfOcZztt0QYENnvr6llHBFE6CnoyOTMx+rRK52GkZaNhkZHdkDsu223TstlfHVRSOfWPe7RVStLnAsa3DzGMDOn/+c4G+Scq3FDFE0thjbG0kkhoABJ6nbtXsgx1LbLmxrXugnMcU9O9kc74jNhpcHDW3ALQCMajnZ3eAvCOy3Sekgo30gjFJb5aUSPlaWzP1xEYAJIa4RncjIyQRsM7hEGLq7Xcqytkr20lRSkVEcoijli5zgInMJBJLMguHU7jtB2X4zh6uFvuTHQtMtTbnwx63tc7mOkmfguAAH57c4AAPTYLaoglW6CaG43Z0seIqioZNE/IIcOUxhGOoILD17woVHw/WxWsQyQNE2igb+c055RYX757MH4+xbJEGev1LcKqqh8Ea8xcmWNzoDG14cS3ALngkMODnTvkDY4XybdVw2GzMEPMnoOS+SnDwC/SzSQCTgkE5GSBkDcdVo0QY+a3XR08lXFRRU5lERMcIjL24nkeSNWWa8OBJO2ScHOCuY2W5tp3u8HqfCXvqNL2zxOcQ/SQJGuGhzTjzgBkEbAg5W5RBlaW3V9PfI5GxPZEZjJOdbHwHMZBcwHz2PJwMDDcZ65XnxxYb1frYYbTcvBgAeZAfNEw7i8bj4uh7cLXIg/mfC9jutBR8P0lTWVFFM0VQMPLjPKw8nYlpyDkHJJ67bLa+Krl6fqvoIf8ABK/9JLR/BP8A0aq6CR4quXp+q+gh/wAE8VXL0/VfQQ/4KuiCR4quXp+q+gh/wQWu5A/79VH1GCH/AAVdcU1aGXClo2jMkzXyHfGljcAn1nLmjHrJ7EEHivh6qv1TRFkVPJFTtkDmyVD4iS7TjBa07DHb1z0XBdeGb3dp6aom8Wc2mjA3c7TO7mNdokAYMxgA4Hfg9u164XG40dfBT09DSyxVMhjikfVuY7IYXHIEZwNiBgns6Z2/aTiCmqKmakldHDVxyviEeskOIGTvgY2ycdcDOEHLWWuvbehcKWmoJHSwRxvMziOU9rnHUMNy7ZwA3B2C86CyV0FwutTJR22Gaqe6WGpYTI+N+hrWggsGRsScHtIVSC+UMzqaI1EYnna1wa1xIy5uQA7AGSNwDgkb4XpU3OClnkZUSxxsjYx5OolxLnEAaQN8kYGCSTtjvCBwtw9crPcJ5qoQcqWBkZ01DpHBzSTkAsAAOScDpt1Ve+2+euhpXU0cE0lNUCbk1JIZIA1zcEgHBGrIODu0Lq8a0fgPhzqljaYAkyk4a0A4Oe7B2OehXiL9bnUhqBVtMXM5WwJcX4zpDcZJxvjHTfogimwVrXwVMdvtmpr5tVG57jG3mFp1hxafOBaQfNAIJAx2y3cC15ZIwmhlBYxjXPLhsIZWHbScAGRpaMnZg3BWvhvNJUXOKjgeJOdT+EMkYctc3OBg/OV8ScRWuCZ8E1bG2WMlrm751Dq0bbn1Dc9gQYzhy2T11bX0rTb2imuDJaiRrHOma5gbswkAYJY4ZOCMu23VSLhevjiZByqDTBzyypBPMqTI17QH+bsPPyTk5IGAtAb9bA2JzqyMtlaHse0kjSTgOJH5oJ2ycDII7F9xXi3z3A0kdXG6oDnM5YJzqbnI7sjBOOuN+iDLycIXB9t8DiFFTjwKnhLonnz5IpNRJGjGCCdyCQcbFftNwjWxxwCWOBw8YsrJI5qgybBhacYjALjnuA2G6uR8TUE1VLHHOx0EcImdNqIG7tIABG4J6EZz0GV6+UFCaqjiik1eFOe0OwRoLRkhwIyDuNjjrlBKdYK7xbSMNLQvnpK+WpZEZHct0bzIdOSzIxrG2CPNHyaGgbOyiibUsiZKG4dHBnQ3uAyAcAYHQfEuUcRWt1NLUitj5MOkvecgAOOGncbgnYEbHvXtHdaaopWTUszJOa7lxasgOeRkA7ZG2/TpugoouO31ja6hhqmAtbK0EtJyWntB9YOQfiXYgIiICIiAiIgIiICIiAiIgIiICIiApFp/3e/fzcf/AARKupFp/wB3v383H/wRIK6IiAiIgIiICIiAiIgIiICIiAiIgIiICIiCRX/pJaP4J/6NVdSK/wDSS0fwT/0aq6AiIgKTIwxcSU0x/wDHPTPhB7nhwcB8ZGo//UqsiCdXUklRcLbOwtDKWZ73g9SDG5ox8rgpz7JUuc0tdF/uL6o7n8wxuaOzrkj5O1aJEGPobDcqKei5RZFy2wieSOdxZI1kbWuaYyCC44IDhjbGdxg9t1tFRWVs9THHHK0xQsawyujflj3klrhu04cMHvBB2OVo0QZ7xVXTcNuoKmVslS9xIL36sN5mQCcDJDcAnG5+dedRaq2K8SXOnZFKfCOY2Jzy0lphbGd8EAgt+YncLSogzlptFZQVkT3mHS6GQSljz5j3ymTDQRuBqIBOOnTsXrHaJ2VUMuYyG3KSqOCc6HRPYOzrlw+TtV5EGHrOG7tLQvomujdG6m0N0zujaH6nk6gBl4IcMAnAIORvvTfYKl8McZewDw+pqHuBJIZIyZo7NyOY3b1HdaVEGQNnvLo2PEdPDJBTQ04Ec2TIGSAuIJbhuWg4PUE9nVeUfDNe9szHuYxs8s+ouqHyOYySFrAdThlxBB2OPUcLaIgyr7NcK6WGaojgp3QNp4gyOQuDwyZkjz0GBhmGjruc4X3HEx/F1VOJmmlpI2zyjOzKgtLMk9NoxuOzVntWnRBK4dhfBZoRIC10rpJtJ6tD3l4afWA4D5FVREBERAREQEREBERAREQEREBERAREQFImsMclbPUR1dZTvqCHSNgm0tJDQ3OMdcNA+REQPEPwrdPaPwTxD8K3T2j8ERA8Q/Ct09o/BPEPwrdPaPwREDxD8K3T2j8E8Q/Ct09o/BEQPEPwrdPaPwTxD8K3T2j8ERA8Q/Ct09o/BPEPwrdPaPwREDxD8K3T2j8E8Q/Ct09o/BEQPEPwrdPaPwTxD8K3T2j8ERA8Q/Ct09o/BPEPwrdPaPwREDxD8K3T2j8E8Q/Ct09o/BEQPEPwrdPaPwTxD8K3T2j8ERB+0tjjgrY6t1XV1EkbXNYJ5dQaHYztjrsFWREBERAREQEREBERAREQEREBERAREQEREBERAREQf//Z;" vertex="1" parent="1">
          <mxGeometry x="70" y="590" width="467" height="230" as="geometry" />
        </mxCell>
        <mxCell id="7mMt30TFksxbmzaqSAxT-7" value="&lt;div&gt;Clientes&lt;/div&gt;" style="swimlane;fontStyle=1;align=center;verticalAlign=top;childLayout=stackLayout;horizontal=1;startSize=26;horizontalStack=0;resizeParent=1;resizeParentMax=0;resizeLast=0;collapsible=1;marginBottom=0;whiteSpace=wrap;html=1;" vertex="1" parent="1">
          <mxGeometry x="80" y="80" width="160" height="138" as="geometry" />
        </mxCell>
        <mxCell id="7mMt30TFksxbmzaqSAxT-8" value="+ id: int" style="text;strokeColor=none;fillColor=none;align=left;verticalAlign=top;spacingLeft=4;spacingRight=4;overflow=hidden;rotatable=0;points=[[0,0.5],[1,0.5]];portConstraint=eastwest;whiteSpace=wrap;html=1;" vertex="1" parent="7mMt30TFksxbmzaqSAxT-7">
          <mxGeometry y="26" width="160" height="26" as="geometry" />
        </mxCell>
        <mxCell id="7mMt30TFksxbmzaqSAxT-12" value="&lt;div&gt;+ nome: string&lt;/div&gt;&lt;div&gt;&lt;br&gt;&lt;/div&gt;" style="text;strokeColor=none;fillColor=none;align=left;verticalAlign=top;spacingLeft=4;spacingRight=4;overflow=hidden;rotatable=0;points=[[0,0.5],[1,0.5]];portConstraint=eastwest;whiteSpace=wrap;html=1;" vertex="1" parent="7mMt30TFksxbmzaqSAxT-7">
          <mxGeometry y="52" width="160" height="26" as="geometry" />
        </mxCell>
        <mxCell id="7mMt30TFksxbmzaqSAxT-11" value="+ id: type" style="text;strokeColor=none;fillColor=none;align=left;verticalAlign=top;spacingLeft=4;spacingRight=4;overflow=hidden;rotatable=0;points=[[0,0.5],[1,0.5]];portConstraint=eastwest;whiteSpace=wrap;html=1;" vertex="1" parent="7mMt30TFksxbmzaqSAxT-7">
          <mxGeometry y="78" width="160" height="26" as="geometry" />
        </mxCell>
        <mxCell id="7mMt30TFksxbmzaqSAxT-9" value="" style="line;strokeWidth=1;fillColor=none;align=left;verticalAlign=middle;spacingTop=-1;spacingLeft=3;spacingRight=3;rotatable=0;labelPosition=right;points=[];portConstraint=eastwest;strokeColor=inherit;" vertex="1" parent="7mMt30TFksxbmzaqSAxT-7">
          <mxGeometry y="104" width="160" height="8" as="geometry" />
        </mxCell>
        <mxCell id="7mMt30TFksxbmzaqSAxT-10" value="+ method(type): type" style="text;strokeColor=none;fillColor=none;align=left;verticalAlign=top;spacingLeft=4;spacingRight=4;overflow=hidden;rotatable=0;points=[[0,0.5],[1,0.5]];portConstraint=eastwest;whiteSpace=wrap;html=1;" vertex="1" parent="7mMt30TFksxbmzaqSAxT-7">
          <mxGeometry y="112" width="160" height="26" as="geometry" />
        </mxCell>
        <mxCell id="7mMt30TFksxbmzaqSAxT-13" value="Produtos" style="swimlane;fontStyle=1;align=center;verticalAlign=top;childLayout=stackLayout;horizontal=1;startSize=26;horizontalStack=0;resizeParent=1;resizeParentMax=0;resizeLast=0;collapsible=1;marginBottom=0;whiteSpace=wrap;html=1;" vertex="1" parent="1">
          <mxGeometry x="280" y="80" width="160" height="138" as="geometry" />
        </mxCell>
        <mxCell id="7mMt30TFksxbmzaqSAxT-14" value="+ id: int" style="text;strokeColor=none;fillColor=none;align=left;verticalAlign=top;spacingLeft=4;spacingRight=4;overflow=hidden;rotatable=0;points=[[0,0.5],[1,0.5]];portConstraint=eastwest;whiteSpace=wrap;html=1;" vertex="1" parent="7mMt30TFksxbmzaqSAxT-13">
          <mxGeometry y="26" width="160" height="26" as="geometry" />
        </mxCell>
        <mxCell id="7mMt30TFksxbmzaqSAxT-15" value="&lt;div&gt;+ nome: string&lt;/div&gt;&lt;div&gt;&lt;br&gt;&lt;/div&gt;" style="text;strokeColor=none;fillColor=none;align=left;verticalAlign=top;spacingLeft=4;spacingRight=4;overflow=hidden;rotatable=0;points=[[0,0.5],[1,0.5]];portConstraint=eastwest;whiteSpace=wrap;html=1;" vertex="1" parent="7mMt30TFksxbmzaqSAxT-13">
          <mxGeometry y="52" width="160" height="26" as="geometry" />
        </mxCell>
        <mxCell id="7mMt30TFksxbmzaqSAxT-16" value="+ valor: int" style="text;strokeColor=none;fillColor=none;align=left;verticalAlign=top;spacingLeft=4;spacingRight=4;overflow=hidden;rotatable=0;points=[[0,0.5],[1,0.5]];portConstraint=eastwest;whiteSpace=wrap;html=1;" vertex="1" parent="7mMt30TFksxbmzaqSAxT-13">
          <mxGeometry y="78" width="160" height="26" as="geometry" />
        </mxCell>
        <mxCell id="7mMt30TFksxbmzaqSAxT-17" value="" style="line;strokeWidth=1;fillColor=none;align=left;verticalAlign=middle;spacingTop=-1;spacingLeft=3;spacingRight=3;rotatable=0;labelPosition=right;points=[];portConstraint=eastwest;strokeColor=inherit;" vertex="1" parent="7mMt30TFksxbmzaqSAxT-13">
          <mxGeometry y="104" width="160" height="8" as="geometry" />
        </mxCell>
        <mxCell id="7mMt30TFksxbmzaqSAxT-18" value="+ method(type): type" style="text;strokeColor=none;fillColor=none;align=left;verticalAlign=top;spacingLeft=4;spacingRight=4;overflow=hidden;rotatable=0;points=[[0,0.5],[1,0.5]];portConstraint=eastwest;whiteSpace=wrap;html=1;" vertex="1" parent="7mMt30TFksxbmzaqSAxT-13">
          <mxGeometry y="112" width="160" height="26" as="geometry" />
        </mxCell>
        <mxCell id="7mMt30TFksxbmzaqSAxT-19" value="NotasFiscais" style="swimlane;fontStyle=1;align=center;verticalAlign=top;childLayout=stackLayout;horizontal=1;startSize=26;horizontalStack=0;resizeParent=1;resizeParentMax=0;resizeLast=0;collapsible=1;marginBottom=0;whiteSpace=wrap;html=1;" vertex="1" parent="1">
          <mxGeometry x="80" y="280" width="300" height="190" as="geometry" />
        </mxCell>
        <mxCell id="7mMt30TFksxbmzaqSAxT-20" value="+ id: int" style="text;strokeColor=none;fillColor=none;align=left;verticalAlign=top;spacingLeft=4;spacingRight=4;overflow=hidden;rotatable=0;points=[[0,0.5],[1,0.5]];portConstraint=eastwest;whiteSpace=wrap;html=1;" vertex="1" parent="7mMt30TFksxbmzaqSAxT-19">
          <mxGeometry y="26" width="300" height="26" as="geometry" />
        </mxCell>
        <mxCell id="7mMt30TFksxbmzaqSAxT-21" value="&lt;div&gt;+ idCliente: int&lt;/div&gt;&lt;div&gt;&lt;br&gt;&lt;/div&gt;" style="text;strokeColor=none;fillColor=none;align=left;verticalAlign=top;spacingLeft=4;spacingRight=4;overflow=hidden;rotatable=0;points=[[0,0.5],[1,0.5]];portConstraint=eastwest;whiteSpace=wrap;html=1;" vertex="1" parent="7mMt30TFksxbmzaqSAxT-19">
          <mxGeometry y="52" width="300" height="26" as="geometry" />
        </mxCell>
        <mxCell id="7mMt30TFksxbmzaqSAxT-22" value="+ data: int" style="text;strokeColor=none;fillColor=none;align=left;verticalAlign=top;spacingLeft=4;spacingRight=4;overflow=hidden;rotatable=0;points=[[0,0.5],[1,0.5]];portConstraint=eastwest;whiteSpace=wrap;html=1;" vertex="1" parent="7mMt30TFksxbmzaqSAxT-19">
          <mxGeometry y="78" width="300" height="26" as="geometry" />
        </mxCell>
        <mxCell id="7mMt30TFksxbmzaqSAxT-23" value="" style="line;strokeWidth=1;fillColor=none;align=left;verticalAlign=middle;spacingTop=-1;spacingLeft=3;spacingRight=3;rotatable=0;labelPosition=right;points=[];portConstraint=eastwest;strokeColor=inherit;" vertex="1" parent="7mMt30TFksxbmzaqSAxT-19">
          <mxGeometry y="104" width="300" height="8" as="geometry" />
        </mxCell>
        <mxCell id="7mMt30TFksxbmzaqSAxT-24" value="+ itemAdiciona(idProduto, quantidade): bool" style="text;strokeColor=none;fillColor=none;align=left;verticalAlign=top;spacingLeft=4;spacingRight=4;overflow=hidden;rotatable=0;points=[[0,0.5],[1,0.5]];portConstraint=eastwest;whiteSpace=wrap;html=1;" vertex="1" parent="7mMt30TFksxbmzaqSAxT-19">
          <mxGeometry y="112" width="300" height="26" as="geometry" />
        </mxCell>
        <mxCell id="7mMt30TFksxbmzaqSAxT-33" value="&lt;div&gt;+ itemRemove(idProduto, quantidade): bool&lt;/div&gt;" style="text;strokeColor=none;fillColor=none;align=left;verticalAlign=top;spacingLeft=4;spacingRight=4;overflow=hidden;rotatable=0;points=[[0,0.5],[1,0.5]];portConstraint=eastwest;whiteSpace=wrap;html=1;" vertex="1" parent="7mMt30TFksxbmzaqSAxT-19">
          <mxGeometry y="138" width="300" height="26" as="geometry" />
        </mxCell>
        <mxCell id="7mMt30TFksxbmzaqSAxT-34" value="&lt;div&gt;+ valorTotal(): int&lt;br&gt;&lt;/div&gt;" style="text;strokeColor=none;fillColor=none;align=left;verticalAlign=top;spacingLeft=4;spacingRight=4;overflow=hidden;rotatable=0;points=[[0,0.5],[1,0.5]];portConstraint=eastwest;whiteSpace=wrap;html=1;" vertex="1" parent="7mMt30TFksxbmzaqSAxT-19">
          <mxGeometry y="164" width="300" height="26" as="geometry" />
        </mxCell>
        <mxCell id="7mMt30TFksxbmzaqSAxT-25" value="NotasFiscaisItens" style="swimlane;fontStyle=1;align=center;verticalAlign=top;childLayout=stackLayout;horizontal=1;startSize=26;horizontalStack=0;resizeParent=1;resizeParentMax=0;resizeLast=0;collapsible=1;marginBottom=0;whiteSpace=wrap;html=1;" vertex="1" parent="1">
          <mxGeometry x="400" y="280" width="160" height="190" as="geometry" />
        </mxCell>
        <mxCell id="7mMt30TFksxbmzaqSAxT-26" value="+ id: int" style="text;strokeColor=none;fillColor=none;align=left;verticalAlign=top;spacingLeft=4;spacingRight=4;overflow=hidden;rotatable=0;points=[[0,0.5],[1,0.5]];portConstraint=eastwest;whiteSpace=wrap;html=1;" vertex="1" parent="7mMt30TFksxbmzaqSAxT-25">
          <mxGeometry y="26" width="160" height="26" as="geometry" />
        </mxCell>
        <mxCell id="7mMt30TFksxbmzaqSAxT-27" value="&lt;div&gt;+ idNotaFiscal: int&lt;/div&gt;&lt;div&gt;&lt;br&gt;&lt;/div&gt;" style="text;strokeColor=none;fillColor=none;align=left;verticalAlign=top;spacingLeft=4;spacingRight=4;overflow=hidden;rotatable=0;points=[[0,0.5],[1,0.5]];portConstraint=eastwest;whiteSpace=wrap;html=1;" vertex="1" parent="7mMt30TFksxbmzaqSAxT-25">
          <mxGeometry y="52" width="160" height="26" as="geometry" />
        </mxCell>
        <mxCell id="7mMt30TFksxbmzaqSAxT-28" value="+ idProduto: int" style="text;strokeColor=none;fillColor=none;align=left;verticalAlign=top;spacingLeft=4;spacingRight=4;overflow=hidden;rotatable=0;points=[[0,0.5],[1,0.5]];portConstraint=eastwest;whiteSpace=wrap;html=1;" vertex="1" parent="7mMt30TFksxbmzaqSAxT-25">
          <mxGeometry y="78" width="160" height="26" as="geometry" />
        </mxCell>
        <mxCell id="7mMt30TFksxbmzaqSAxT-31" value="&lt;div&gt;+ quantidade: double&lt;/div&gt;" style="text;strokeColor=none;fillColor=none;align=left;verticalAlign=top;spacingLeft=4;spacingRight=4;overflow=hidden;rotatable=0;points=[[0,0.5],[1,0.5]];portConstraint=eastwest;whiteSpace=wrap;html=1;" vertex="1" parent="7mMt30TFksxbmzaqSAxT-25">
          <mxGeometry y="104" width="160" height="26" as="geometry" />
        </mxCell>
        <mxCell id="7mMt30TFksxbmzaqSAxT-32" value="&lt;div&gt;+ valor: int&lt;/div&gt;" style="text;strokeColor=none;fillColor=none;align=left;verticalAlign=top;spacingLeft=4;spacingRight=4;overflow=hidden;rotatable=0;points=[[0,0.5],[1,0.5]];portConstraint=eastwest;whiteSpace=wrap;html=1;" vertex="1" parent="7mMt30TFksxbmzaqSAxT-25">
          <mxGeometry y="130" width="160" height="26" as="geometry" />
        </mxCell>
        <mxCell id="7mMt30TFksxbmzaqSAxT-29" value="" style="line;strokeWidth=1;fillColor=none;align=left;verticalAlign=middle;spacingTop=-1;spacingLeft=3;spacingRight=3;rotatable=0;labelPosition=right;points=[];portConstraint=eastwest;strokeColor=inherit;" vertex="1" parent="7mMt30TFksxbmzaqSAxT-25">
          <mxGeometry y="156" width="160" height="8" as="geometry" />
        </mxCell>
        <mxCell id="7mMt30TFksxbmzaqSAxT-30" value="+ method(type): type" style="text;strokeColor=none;fillColor=none;align=left;verticalAlign=top;spacingLeft=4;spacingRight=4;overflow=hidden;rotatable=0;points=[[0,0.5],[1,0.5]];portConstraint=eastwest;whiteSpace=wrap;html=1;" vertex="1" parent="7mMt30TFksxbmzaqSAxT-25">
          <mxGeometry y="164" width="160" height="26" as="geometry" />
        </mxCell>
      </root>
    </mxGraphModel>
  </diagram>
</mxfile>
